<svg width="100%" height="100%" id="svg" viewBox="0 0 1440 490" xmlns="http://www.w3.org/2000/svg" class="transition duration-300 ease-in-out delay-150"><path d="M 0,500 C 0,500 0,125 0,125 C 98.78571428571428,149 197.57142857142856,173 316,158 C 434.42857142857144,143 572.5,89 689,87 C 805.5,85 900.4285714285713,135 1022,150 C 1143.5714285714287,165 1291.7857142857142,145 1440,125 C 1440,125 1440,500 1440,500 Z" stroke="none" stroke-width="0" fill="#ff6900" fill-opacity="0.4" class="transition-all duration-300 ease-in-out delay-150 path-0"></path><path d="M 0,500 C 0,500 0,250 0,250 C 126.14285714285714,238.5 252.28571428571428,227 382,228 C 511.7142857142857,229 645,242.5 763,253 C 881,263.5 983.7142857142858,271 1094,270 C 1204.2857142857142,269 1322.142857142857,259.5 1440,250 C 1440,250 1440,500 1440,500 Z" stroke="none" stroke-width="0" fill="#ff6900" fill-opacity="0.53" class="transition-all duration-300 ease-in-out delay-150 path-1"></path><path d="M 0,500 C 0,500 0,375 0,375 C 123.25,395.0357142857143 246.5,415.07142857142856 368,420 C 489.5,424.92857142857144 609.2500000000001,414.75 720,396 C 830.7499999999999,377.25 932.5,349.92857142857144 1051,345 C 1169.5,340.07142857142856 1304.75,357.5357142857143 1440,375 C 1440,375 1440,500 1440,500 Z" stroke="none" stroke-width="0" fill="#ff6900" fill-opacity="1" class="transition-all duration-300 ease-in-out delay-150 path-2"></path></svg>